<?xml version="1.0" encoding="UTF-8"?>
<!DOCTYPE svg PUBLIC "-//W3C//DTD SVG 1.1//EN" "http://www.w3.org/Graphics/SVG/1.1/DTD/svg11.dtd">
<!-- Creator: CorelDRAW -->
<svg xmlns="http://www.w3.org/2000/svg" xml:space="preserve" width="1.99999in" height="1.99999in" version="1.1" style="shape-rendering:geometricPrecision; text-rendering:geometricPrecision; image-rendering:optimizeQuality; fill-rule:evenodd; clip-rule:evenodd"
viewBox="0 0 2000 2000"
 xmlns:xlink="http://www.w3.org/1999/xlink">
 <defs>
  <style type="text/css">
   <![CDATA[
    .fil0 {fill:none}
    .fil1 {fill:black}
   ]]>
  </style>
 </defs>
 <rect class="fil0" width="2000" height="2000"/>
 <g id="Layer_x0020_1">
  <metadata id="CorelCorpID_0Corel-Layer"/>
  <path class="fil1" d="M1289 1852l-577 0c-13,0 -24,-10 -24,-23l0 -83c0,-59 48,-106 107,-106l127 0 0 -144c-253,-38 -448,-257 -448,-520 0,-53 4,-43 110,-43l0 -370c0,-269 251,-450 478,-411 200,30 354,203 354,411l0 370c106,0 110,-10 110,43 0,263 -195,482 -448,520l0 144 128 0c58,0 106,47 106,106l0 83c0,13 -11,23 -23,23zm-342 -400c40,4 65,5 106,0 238,-26 425,-228 426,-473l-63 0c-2,276 -267,472 -529,397 -174,-49 -301,-208 -303,-397l-63 0c1,245 188,447 426,473zm21 49l0 139 64 0 0 -139 -64 0zm-337 -525c0,46 8,91 24,132l153 0c31,0 31,46 0,46l-131 0c50,91 138,159 242,182l0 -1133c-104,23 -192,91 -242,182l131 0c31,0 31,47 0,47l-153 0c-28,72 -24,121 -24,194l177 0c31,0 31,47 0,47l-177 0 0 194 177 0c31,0 31,46 0,46l-177 0 0 63zm335 368c23,2 45,2 68,0l0 -1148c-23,-2 -45,-2 -68,0l0 1148zm115 -8c104,-23 192,-91 242,-182l-131 0c-31,0 -31,-46 0,-46l153 0c27,-71 24,-124 24,-195l-177 0c-31,0 -31,-46 0,-46l177 0 0 -194 -177 0c-31,0 -31,-47 0,-47l177 0c0,-73 4,-122 -24,-194l-153 0c-31,0 -31,-47 0,-47l132 0c-51,-91 -139,-159 -243,-182l0 1133zm-286 350c-33,0 -60,27 -60,60l0 60 530 0 0 -60c0,-33 -26,-60 -59,-60l-411 0z"/>
 </g>
</svg>
